<svg version="1.1" xmlns="http://www.w3.org/2000/svg" xmlns:xlink="http://www.w3.org/1999/xlink"
     viewBox="0 0 1000 1000" enable-background="new 0 0 1000 1000" xml:space="preserve">
    <g><path d="M691.1,497c0,0,175.2-127.8,174.3-234c-0.7-92.1-78.1-166.8-174.3-166.8c-96.3,0-168.6,74.8-174.3,166.8C510.2,369.2,691.1,497,691.1,497z M688.3,182.9c42.1,0,76.3,33.6,76.3,75.2c0,41.5-34.2,75.2-76.3,75.2c-42.1,0-76.3-33.7-76.3-75.2C612,216.6,646.1,182.9,688.3,182.9z M469.3,639.9c6-8.9,11.4-18.2,16.1-27.8c14.8-28.8,23.9-58,23.6-86.1c-1-126.7-111.5-229.4-249-229.4c-0.3,0-0.6,0-1,0c-0.3,0-0.6,0-1,0C121.1,296.6,10,397.4,10,521.9c0,6.6,0.3,13.1,0.9,19.5c0.7,12.1,3.1,24.3,6.8,36.5c7,24.8,18.5,47.9,33.6,68.6C122,753.9,260,847.8,260,847.8S399,750.1,469.3,639.9z M255.9,597.2c-56.2,0-101.7-44.9-101.7-100.2c0-55.3,45.5-100.2,101.7-100.2S357.6,441.7,357.6,497C357.6,552.4,312.1,597.2,255.9,597.2z M916.8,655.1c-252-47-203.1-108-203.1-108h-50.9C635.6,706.4,1070,648.1,901.1,783c-149.5,119.5-504.4,14.6-504.4,14.6l-50.9,50.1C913.3,1036.4,1112.7,691.6,916.8,655.1z"/></g>
</svg>
